<?xml version="1.0" ?><svg data-name="Layer 1" id="Layer_1" viewBox="0 0 200 200" xmlns="http://www.w3.org/2000/svg"><path d="M131.51,138.91H68a13.51,13.51,0,0,1-13.5-13.5V61.93A13.51,13.51,0,0,1,68,48.43h63.47A13.51,13.51,0,0,1,145,61.93v63.48A13.51,13.51,0,0,1,131.51,138.91ZM68,52a9.91,9.91,0,0,0-9.9,9.9v63.48a9.91,9.91,0,0,0,9.9,9.9h63.47a9.91,9.91,0,0,0,9.9-9.9V61.93a9.91,9.91,0,0,0-9.9-9.9Z"/><path d="M125.48,108H74.07a8.6,8.6,0,0,1-5.49-2L55.19,94.92l2.29-2.78,13.39,11.09a5,5,0,0,0,3.2,1.15h51.41a5,5,0,0,0,3.2-1.15l13.39-11.09,2.29,2.78L131,106A8.6,8.6,0,0,1,125.48,108Z"/><path d="M56.78,82.25H51.34a7.14,7.14,0,0,1-7.14-7.13V67.93a7.14,7.14,0,0,1,7.14-7.14h5v3.6h-5a3.55,3.55,0,0,0-3.54,3.54v7.19a3.54,3.54,0,0,0,3.54,3.53h5.44Z"/><path d="M148.66,82.25h-5.45v-3.6h5.45a3.54,3.54,0,0,0,3.54-3.53V67.93a3.55,3.55,0,0,0-3.54-3.54h-5v-3.6h5a7.14,7.14,0,0,1,7.14,7.14v7.19A7.14,7.14,0,0,1,148.66,82.25Z"/><path d="M70.55,130.85a2.57,2.57,0,0,1-1.68-.64,2.53,2.53,0,0,1-.82-1.86V120a2.51,2.51,0,0,1,2.76-2.49l13.33,1.38a2.5,2.5,0,0,1,2.24,2.49V127a2.49,2.49,0,0,1-2.24,2.48l-13.33,1.39Zm1.1-9.67v5.95L82.78,126v-3.65Zm12.12,4.69h0Z"/><path d="M129,130.85h-.26l-13.33-1.39a2.49,2.49,0,0,1-2.24-2.48v-5.63a2.5,2.5,0,0,1,2.24-2.49l13.33-1.38a2.55,2.55,0,0,1,1.93.63,2.5,2.5,0,0,1,.83,1.86v8.39a2.53,2.53,0,0,1-.82,1.86A2.57,2.57,0,0,1,129,130.85ZM116.77,126l11.13,1.15v-5.95l-11.13,1.15Zm-1-.11h0Z"/><path d="M78.05,151.57H67a5.36,5.36,0,0,1-5.36-5.36v-9.1h3.6v9.1A1.76,1.76,0,0,0,67,148H78.05a1.76,1.76,0,0,0,1.76-1.76v-9.1h3.6v9.1A5.37,5.37,0,0,1,78.05,151.57Z"/><path d="M132.58,151.57H121.5a5.36,5.36,0,0,1-5.36-5.36v-9.1h3.6v9.1A1.76,1.76,0,0,0,121.5,148h11.08a1.76,1.76,0,0,0,1.76-1.76v-9.1h3.6v9.1A5.37,5.37,0,0,1,132.58,151.57Z"/><rect height="55.95" width="3.6" x="97.98" y="50.23"/><path d="M83.87,94.9l-2.32-2.75a5.4,5.4,0,1,0-7,0L72.23,94.9a9,9,0,1,1,11.64,0Z"/><rect height="3.6" width="43.44" x="56.34" y="91.73"/></svg>